<svg id="Ebene_1" data-name="Ebene 1" xmlns="http://www.w3.org/2000/svg" viewBox="0 0 198.43 198.43"><defs><style>.cls-1{fill:#fff;}</style></defs><g id="location"><path class="cls-1" d="M99.21,59.23a40,40,0,1,0,40,40A40,40,0,0,0,99.21,59.23Zm0,51.32a11.34,11.34,0,1,1,11.34-11.34A11.34,11.34,0,0,1,99.21,110.55Z" transform="translate(0 0)"/><path class="cls-1" d="M99.21,0a99.22,99.22,0,1,0,99.22,99.21A99.21,99.21,0,0,0,99.21,0Zm0,152.19a53,53,0,1,1,53-53A53,53,0,0,1,99.21,152.19Z" transform="translate(0 0)"/></g></svg>