<svg id="Ebene_1" data-name="Ebene 1" xmlns="http://www.w3.org/2000/svg" viewBox="0 0 198.43 198.43"><defs><style>.cls-1{fill:#fff;}</style></defs><path id="meme" class="cls-1" d="M99.21,0a99.22,99.22,0,1,0,99.22,99.21A99.21,99.21,0,0,0,99.21,0Zm-31,130.19A11.34,11.34,0,1,1,79.5,118.86,11.33,11.33,0,0,1,68.16,130.19Zm62.1,0a11.34,11.34,0,1,1,11.33-11.33A11.33,11.33,0,0,1,130.26,130.19ZM148.5,77.6a6.48,6.48,0,0,1-9-2,47.74,47.74,0,0,0-80.63,0,6.5,6.5,0,0,1-11-7,60.73,60.73,0,0,1,102.57,0A6.5,6.5,0,0,1,148.5,77.6Z" transform="translate(0 0)"/></svg>